<svg width="24" height="24" viewBox="0 0 24 24" fill="none" xmlns="http://www.w3.org/2000/svg">
<path d="M4.5 7.5V15.5C4.5 17.3856 4.5 18.3284 5.08579 18.9142C5.67157 19.5 6.61438 19.5 8.5 19.5H15.5C17.3856 19.5 18.3284 19.5 18.9142 18.9142C19.5 18.3284 19.5 17.3856 19.5 15.5V7.5M4.5 7.5H19.5M4.5 7.5H2.92857C2.76151 7.5 2.67798 7.5 2.61699 7.46168C2.58519 7.4417 2.5583 7.41481 2.53832 7.38301C2.5 7.32202 2.5 7.23849 2.5 7.07143V7.07143C2.5 6.06905 2.5 5.56786 2.72991 5.20195C2.8498 5.01115 3.01115 4.8498 3.20195 4.72991C3.56786 4.5 4.06905 4.5 5.07143 4.5H18.9286C19.931 4.5 20.4321 4.5 20.798 4.72991C20.9889 4.8498 21.1502 5.01115 21.2701 5.20195C21.5 5.56786 21.5 6.06905 21.5 7.07143V7.07143C21.5 7.23849 21.5 7.32202 21.4617 7.38301C21.4417 7.41481 21.4148 7.4417 21.383 7.46168C21.322 7.5 21.2385 7.5 21.0714 7.5H19.5" stroke="black"/>
<path d="M9.5 14.5H14.5" stroke="black" stroke-linecap="round"/>
</svg>
