<svg width="61" height="61" viewBox="0 0 61 61" fill="none" xmlns="http://www.w3.org/2000/svg">
<path d="M30.5 53.375C27.496 53.375 24.5214 52.7833 21.7461 51.6337C18.9708 50.4842 16.4491 48.7992 14.3249 46.6751C12.2008 44.5509 10.5158 42.0292 9.36625 39.2539C8.21668 36.4786 7.625 33.504 7.625 30.5C7.625 27.496 8.21668 24.5214 9.36626 21.7461C10.5158 18.9708 12.2008 16.4491 14.3249 14.3249C16.4491 12.2008 18.9708 10.5158 21.7461 9.36625C24.5214 8.21668 27.496 7.625 30.5 7.625C33.504 7.625 36.4786 8.21668 39.2539 9.36626C42.0292 10.5158 44.5509 12.2008 46.6751 14.3249C48.7992 16.4491 50.4842 18.9708 51.6337 21.7461C52.7833 24.5214 53.375 27.496 53.375 30.5C53.375 33.504 52.7833 36.4786 51.6337 39.2539C50.4842 42.0292 48.7992 44.5509 46.6751 46.6751C44.5509 48.7992 42.0292 50.4842 39.2539 51.6337C36.4786 52.7833 33.504 53.375 30.5 53.375L30.5 53.375Z" stroke="black" stroke-width="2" stroke-linecap="round"/>
<path d="M22.875 22.875L38.125 38.125" stroke="black" stroke-width="2" stroke-linecap="round"/>
<path d="M38.125 22.875L22.875 38.125" stroke="black" stroke-width="2" stroke-linecap="round"/>
</svg>
